HIERARCHY
ROOT hip
{
  OFFSET 10.2258 85.2782 -18.4639
  CHANNELS 6 Xposition Yposition Zposition Zrotation Xrotation Yrotation
  JOINT abdomen
  {
    OFFSET 0 20.6881 -0.73152
    CHANNELS 3 Zrotation Xrotation Yrotation
    JOINT chest
    {
      OFFSET 0 11.7043 -0.48768
      CHANNELS 3 Zrotation Xrotation Yrotation
      JOINT neck
      {
        OFFSET 0 22.1894 -2.19456
        CHANNELS 3 Zrotation Xrotation Yrotation
        JOINT head
        {
          OFFSET -0.24384 7.07133 1.2192
          CHANNELS 3 Zrotation Xrotation Yrotation
          JOINT leftEye
          {
            OFFSET 4.14528 8.04674 8.04672
            CHANNELS 3 Zrotation Xrotation Yrotation
            End Site
            {
              OFFSET 1 0 0
            }
          }
          JOINT rightEye
          {
            OFFSET -3.6576 8.04674 8.04672
            CHANNELS 3 Zrotation Xrotation Yrotation
            End Site
            {
              OFFSET 1 0 0
            }
          }
        }
      }
      JOINT rCollar
      {
        OFFSET -2.68224 19.2634 -4.8768
        CHANNELS 3 Zrotation Xrotation Yrotation
        JOINT rShldr
        {
          OFFSET -8.77824 -1.95073 1.46304
          CHANNELS 3 Zrotation Xrotation Yrotation
          JOINT rForeArm
          {
            OFFSET -28.1742 -1.7115 0.48768
            CHANNELS 3 Zrotation Xrotation Yrotation
            JOINT rHand
            {
              OFFSET -22.5879 0.773209 7.07136
              CHANNELS 3 Zrotation Xrotation Yrotation
              JOINT rThumb1
              {
                OFFSET -1.2192 -0.487915 3.41376
                CHANNELS 3 Zrotation Xrotation Yrotation
                JOINT rThumb2
                {
                  OFFSET -3.37035 -0.52449 3.41376
                  CHANNELS 3 Zrotation Xrotation Yrotation
                  End Site
                  {
                    OFFSET -1.78271 -1.18214 1.43049
                  }
                }
              }
              JOINT rIndex1
              {
                OFFSET -7.75947 0.938293 5.60832
                CHANNELS 3 Zrotation Xrotation Yrotation
                JOINT rIndex2
                {
                  OFFSET -2.54057 -0.884171 1.56538
                  CHANNELS 3 Zrotation Xrotation Yrotation
                  End Site
                  {
                    OFFSET -1.62519 -0.234802 1.16502
                  }
                }
              }
              JOINT rMid1
              {
                OFFSET -8.24714 1.18213 3.41376
                CHANNELS 3 Zrotation Xrotation Yrotation
                JOINT rMid2
                {
                  OFFSET -3.10165 -0.590103 1.0647
                  CHANNELS 3 Zrotation Xrotation Yrotation
                  End Site
                  {
                    OFFSET -2.48547 -0.328903 0.83742
                  }
                }
              }
              JOINT rRing1
              {
                OFFSET -8.82822 0.546677 1.51678
                CHANNELS 3 Zrotation Xrotation Yrotation
                JOINT rRing2
                {
                  OFFSET -2.60934 -0.819778 -0.0198488
                  CHANNELS 3 Zrotation Xrotation Yrotation
                  End Site
                  {
                    OFFSET -2.33842 -0.294052 0.168128
                  }
                }
              }
              JOINT rPinky1
              {
                OFFSET -8.27202 -0.0477905 -0.4584
                CHANNELS 3 Zrotation Xrotation Yrotation
                JOINT rPinky2
                {
                  OFFSET -1.82734 -0.647385 -0.700984
                  CHANNELS 3 Zrotation Xrotation Yrotation
                  End Site
                  {
                    OFFSET -1.69225 -0.51767 -0.607171
                  }
                }
              }
            }
          }
        }
      }
      JOINT lCollar
      {
        OFFSET 2.68224 19.2634 -4.8768
        CHANNELS 3 Zrotation Xrotation Yrotation
        JOINT lShldr
        {
          OFFSET 8.77824 -1.95073 1.46304
          CHANNELS 3 Zrotation Xrotation Yrotation
          JOINT lForeArm
          {
            OFFSET 28.1742 -1.7115 0.48768
            CHANNELS 3 Zrotation Xrotation Yrotation
            JOINT lHand
            {
              OFFSET 22.5879 0.773209 7.07136
              CHANNELS 3 Zrotation Xrotation Yrotation
              JOINT lThumb1
              {
                OFFSET 1.2192 -0.487915 3.41376
                CHANNELS 3 Zrotation Xrotation Yrotation
                JOINT lThumb2
                {
                  OFFSET 3.37035 -0.52449 3.41376
                  CHANNELS 3 Zrotation Xrotation Yrotation
                  End Site
                  {
                    OFFSET 1.78271 -1.18214 1.43049
                  }
                }
              }
              JOINT lIndex1
              {
                OFFSET 7.75947 0.938293 5.60832
                CHANNELS 3 Zrotation Xrotation Yrotation
                JOINT lIndex2
                {
                  OFFSET 2.54057 -0.884171 1.56538
                  CHANNELS 3 Zrotation Xrotation Yrotation
                  End Site
                  {
                    OFFSET 1.62519 -0.234802 1.16502
                  }
                }
              }
              JOINT lMid1
              {
                OFFSET 8.24714 1.18213 3.41376
                CHANNELS 3 Zrotation Xrotation Yrotation
                JOINT lMid2
                {
                  OFFSET 3.10165 -0.590103 1.0647
                  CHANNELS 3 Zrotation Xrotation Yrotation
                  End Site
                  {
                    OFFSET 2.48547 -0.328903 0.83742
                  }
                }
              }
              JOINT lRing1
              {
                OFFSET 8.82822 0.546677 1.51678
                CHANNELS 3 Zrotation Xrotation Yrotation
                JOINT lRing2
                {
                  OFFSET 2.60934 -0.819778 -0.0198488
                  CHANNELS 3 Zrotation Xrotation Yrotation
                  End Site
                  {
                    OFFSET 2.33842 -0.294052 0.168128
                  }
                }
              }
              JOINT lPinky1
              {
                OFFSET 8.27202 -0.0477905 -0.4584
                CHANNELS 3 Zrotation Xrotation Yrotation
                JOINT lPinky2
                {
                  OFFSET 1.82734 -0.647385 -0.700984
                  CHANNELS 3 Zrotation Xrotation Yrotation
                  End Site
                  {
                    OFFSET 1.69225 -0.51767 -0.607171
                  }
                }
              }
            }
          }
        }
      }
    }
  }
  JOINT rButtock
  {
    OFFSET -8.77824 4.35084 1.2192
    CHANNELS 3 Zrotation Xrotation Yrotation
    JOINT rThigh
    {
      OFFSET 0 -1.70687 -2.19456
      CHANNELS 3 Zrotation Xrotation Yrotation
      JOINT rShin
      {
        OFFSET 0 -36.8199 0.73152
        CHANNELS 3 Zrotation Xrotation Yrotation
        JOINT rFoot
        {
          OFFSET 0.73152 -45.1104 -5.12064
          CHANNELS 3 Zrotation Xrotation Yrotation
          End Site
          {
            OFFSET -1.1221 -3.69964 12.103
          }
        }
      }
    }
  }
  JOINT lButtock
  {
    OFFSET 8.77824 4.35084 1.2192
    CHANNELS 3 Zrotation Xrotation Yrotation
    JOINT lThigh
    {
      OFFSET 0 -1.70687 -2.19456
      CHANNELS 3 Zrotation Xrotation Yrotation
      JOINT lShin
      {
        OFFSET 0 -36.8199 0.73152
        CHANNELS 3 Zrotation Xrotation Yrotation
        JOINT lFoot
        {
          OFFSET -0.73152 -45.1104 -5.12064
          CHANNELS 3 Zrotation Xrotation Yrotation
          End Site
          {
            OFFSET 1.1221 -3.69964 12.103
          }
        }
      }
    }
  }
}
MOTION
Frames:	5
Frame Time:	0.00833333
10.1067 85.1968 -17.9143 -0.443816 -0.00111774 0.00758099 0.583967 -0.00303823 0.0166886 0.16117 -0.0046852 0.0279253 -7.4117e-015 7.95139e-016 2.11209e-016 -2.24254e-014 9.54166e-015 6.18096e-016 -0 0 0 -0 0 0 -3.67894e-015 4.65902e-018 1.98785e-016 -7.71807e-014 3.72721e-017 2.78299e-015 -1.34463e-012 4.05123e-013 4.77083e-014 -1.54096e-011 -3.81269e-013 4.0393e-013 -3.63489e-011 5.28841e-014 9.7325e-013 -6.27778e-011 8.90555e-014 1.68013e-012 -3.63422e-011 5.48646e-014 9.60528e-013 7.73091 5.47488 0.417314 -3.63489e-011 5.28767e-014 9.70069e-013 2.90554 0.965183 0.102902 -3.63428e-011 5.29761e-014 9.7325e-013 10.2786 0.731801 0.0259123 -3.63551e-011 5.32743e-014 9.85972e-013 2.22167 -0.733487 -0.20892 -3.77573e-015 4.46489e-018 0 -7.99074e-014 -5.59082e-017 5.96354e-016 -1.35099e-012 -3.99955e-013 7.63333e-014 -1.54116e-011 4.13646e-013 3.68944e-013 -3.63593e-011 3.10343e-014 9.7325e-013 -6.27901e-011 5.08889e-014 1.68092e-012 -3.63629e-011 3.06128e-014 9.7643e-013 -7.73091 5.47488 -0.417314 -3.63604e-011 3.0911e-014 9.70069e-013 -2.90554 0.965183 -0.102902 -3.63709e-011 3.12092e-014 9.74045e-013 -10.2786 0.731801 -0.0259123 -3.63529e-011 3.18055e-014 9.66889e-013 -2.22167 -0.733487 0.20892 -2.03217e-016 0 -3.88251e-019 0.940016 -4.56521 -0.0787575 -0.00191318 2.71742 -0.00754377 -0.501066 1.84803 0.0947635 2.03217e-016 0 3.88251e-019 -0.0507337 -2.31868 0.021718 0.00815994 -1.35176 0.0697827 0.492754 3.67058 -0.1308 
9.89927 85.1354 -17.419 0.183288 -0.792724 -3.30301 -1.01613 1.90712 0.3511 0.216095 -0.665079 0.0923975 -2.50855 1.98885 -1.29325 2.52086 -3.61522 -1.90233 -0 0 0 -0 0 0 1.56339e-014 5.44991e-015 -8.4261e-014 20.4796 4.77133 -0.218546 -7.15076 -4.16624 9.99466 0.0041311 -1.4258 -0.20016 5.37168e-011 -1.03714e-009 -4.56393e-010 9.50686e-011 -1.80016e-009 -7.91404e-010 5.37211e-011 -1.03713e-009 -4.56407e-010 7.73091 5.47488 0.417314 5.37166e-011 -1.03714e-009 -4.56393e-010 2.90554 0.965183 0.102902 5.37238e-011 -1.03714e-009 -4.56392e-010 10.2786 0.731801 0.0259123 5.37125e-011 -1.03714e-009 -4.56381e-010 2.22167 -0.733487 -0.20892 1.54839e-014 5.45222e-015 -8.4487e-014 -21.3026 0.627617 0.307701 5.21214 -2.60621 -7.86614 -0.0010249 0.710733 -0.0998593 4.29352e-010 1.86041e-009 -4.67799e-010 7.42777e-010 3.22034e-009 -8.12445e-010 4.29349e-010 1.86041e-009 -4.67791e-010 -7.73091 5.47488 -0.417314 4.29352e-010 1.86041e-009 -4.67799e-010 -2.90554 0.965183 -0.102902 4.29344e-010 1.86041e-009 -4.67798e-010 -10.2786 0.731801 -0.0259123 4.29359e-010 1.86041e-009 -4.67806e-010 -2.22167 -0.733487 0.20892 -2.03217e-016 0 -3.88251e-019 -0.161741 -3.18651 5.64968 0.00281115 5.51387 0.0647595 -0.892383 -1.14638 -5.69641 2.03217e-016 0 3.88251e-019 5.63955 -2.56626 0.0253947 0.00701495 -0.957184 0.0615823 0.41488 3.52368 -0.116881 
9.92673 85.1334 -17.4111 0.748761 -1.6209 -6.80612 -2.73406 3.92789 0.704949 0.275458 -1.36432 0.160254 -5.06438 4.09023 -2.66591 4.92527 -7.43095 -3.93857 -0 0 0 -0 0 0 3.66176e-014 1.20752e-014 -1.77841e-013 42.1745 9.80001 -0.458336 -13.1386 -8.13512 20.7095 -0.00234824 -2.93394 -0.412298 1.55869e-010 -2.18161e-009 -9.59645e-010 2.74019e-010 -3.78661e-009 -1.66405e-009 1.55871e-010 -2.18161e-009 -9.5966e-010 7.73091 5.47488 0.417314 1.55869e-010 -2.18161e-009 -9.59641e-010 2.90554 0.965183 0.102902 1.55877e-010 -2.18161e-009 -9.59641e-010 10.2786 0.731801 0.0259123 1.55867e-010 -2.18161e-009 -9.59633e-010 2.22167 -0.733487 -0.20892 3.64071e-014 1.20803e-014 -1.78096e-013 -43.83 1.26407 0.643483 9.94185 -5.18948 -16.2192 0.000590101 1.46543 -0.205948 9.52527e-010 3.93346e-009 -9.83762e-010 1.64774e-009 6.80875e-009 -1.70859e-009 9.52524e-010 3.93346e-009 -9.8375e-010 -7.73091 5.47488 -0.417314 9.52528e-010 3.93346e-009 -9.83759e-010 -2.90554 0.965183 -0.102902 9.52521e-010 3.93346e-009 -9.83761e-010 -10.2786 0.731801 -0.0259123 9.52533e-010 3.93346e-009 -9.8377e-010 -2.22167 -0.733487 0.20892 -2.03217e-016 0 -3.88251e-019 -1.62655 -1.72559 11.6935 9.68014e-005 8.47174 0.14217 -1.96136 -4.23399 -11.848 2.03217e-016 0 3.88251e-019 11.655 -2.8281 0.029285 0.00592739 -0.539859 0.0529194 0.332597 3.36831 -0.102166 
9.93748 85.1321 -17.4102 1.16439 -2.34427 -9.93163 -4.2835 5.72664 1.02445 0.330406 -1.98585 0.221456 -7.2553 5.95437 -3.89847 6.83269 -10.7974 -5.79863 -0 0 0 -0 0 0 5.42595e-014 1.63404e-014 -2.53181e-013 61.5509 14.3131 -0.674297 -17.2473 -10.9784 30.5201 -0.017563 -4.27721 -0.60197 2.33848e-010 -3.11152e-009 -1.37113e-009 4.10761e-010 -5.40065e-009 -2.37757e-009 2.33848e-010 -3.11151e-009 -1.37114e-009 7.73091 5.47488 0.417314 2.33848e-010 -3.11152e-009 -1.37112e-009 2.90554 0.965183 0.102902 2.33857e-010 -3.11152e-009 -1.37112e-009 10.2786 0.731801 0.0259123 2.33848e-010 -3.11152e-009 -1.37112e-009 2.22167 -0.733487 -0.20892 5.40032e-014 1.63477e-014 -2.53461e-013 -63.928 1.88263 0.923546 13.5428 -7.23042 -23.7744 0.00436195 2.13217 -0.299762 1.36078e-009 5.58117e-009 -1.40534e-009 2.35391e-009 9.66093e-009 -2.4407e-009 1.36077e-009 5.58117e-009 -1.40533e-009 -7.73091 5.47488 -0.417314 1.36078e-009 5.58117e-009 -1.40534e-009 -2.90554 0.965183 -0.102902 1.36077e-009 5.58117e-009 -1.40534e-009 -10.2786 0.731801 -0.0259123 1.36078e-009 5.58117e-009 -1.40535e-009 -2.22167 -0.733487 0.20892 -2.03217e-016 0 -3.88251e-019 -3.18328 -0.454677 17.0803 -0.00927912 11.1067 0.212429 -3.47216 -6.82805 -17.4026 2.03217e-016 0 3.88251e-019 17.0202 -3.06142 0.0327539 0.00506367 -0.168034 0.0451947 0.259346 3.2299 -0.0890585 
9.93595 85.1297 -17.4142 1.39779 -2.83588 -12.106 -5.36442 6.97107 1.2538 0.371194 -2.4131 0.265919 -8.72574 7.23709 -4.76283 8.01868 -13.0868 -7.13019 -0 0 0 -0 0 0 6.35471e-014 1.47054e-014 -2.8292e-013 75.0485 17.5383 -0.812497 -19.5361 -12.4392 37.5651 -0.0333877 -5.20847 -0.734046 2.51393e-010 -3.505e-009 -1.55318e-009 4.41985e-010 -6.0837e-009 -2.69328e-009 2.51392e-010 -3.505e-009 -1.5532e-009 7.73091 5.47488 0.417314 2.51393e-010 -3.505e-009 -1.55318e-009 2.90554 0.965183 0.102902 2.51403e-010 -3.505e-009 -1.55318e-009 10.2786 0.731801 0.0259123 2.51394e-010 -3.505e-009 -1.55317e-009 2.22167 -0.733487 -0.20892 6.32816e-014 1.47136e-014 -2.83218e-013 -77.9383 2.4567 1.06394 15.7609 -8.46699 -29.1696 0.0081646 2.57904 -0.362707 1.48171e-009 6.16551e-009 -1.59097e-009 2.56309e-009 1.06725e-008 -2.7627e-009 1.48171e-009 6.16551e-009 -1.59095e-009 -7.73091 5.47488 -0.417314 1.48171e-009 6.16551e-009 -1.59096e-009 -2.90554 0.965183 -0.102902 1.48171e-009 6.16551e-009 -1.59097e-009 -10.2786 0.731801 -0.0259123 1.48171e-009 6.16551e-009 -1.59098e-009 -2.22167 -0.733487 0.20892 -2.03217e-016 0 -3.88251e-019 -4.39555 0.399369 20.833 -0.0199441 12.9345 0.262116 -4.82433 -8.49589 -21.3306 2.03217e-016 0 3.88251e-019 20.7597 -3.22342 0.0351649 0.00452035 0.0900375 0.039807 0.208523 3.13389 -0.079961 
